<?xml version="1.0" standalone="no"?>
<!DOCTYPE svg PUBLIC "-//W3C//DTD SVG 20010904//EN"
 "http://www.w3.org/TR/2001/REC-SVG-20010904/DTD/svg10.dtd">
<svg version="1.0" xmlns="http://www.w3.org/2000/svg"
 width="768.000000pt" height="768.000000pt" viewBox="0 0 768.000000 768.000000"
 preserveAspectRatio="xMidYMid meet">
<metadata>
Created by potrace 1.10, written by Peter Selinger 2001-2011
</metadata>
<g transform="translate(0.000000,768.000000) scale(0.100000,-0.100000)"
fill="#000000" stroke="none">
<path d="M5230 7388 c-58 -4 -154 -20 -215 -34 -60 -15 -140 -32 -177 -39 -36
-8 -97 -26 -135 -40 -77 -30 -202 -81 -250 -101 -17 -8 -35 -14 -39 -14 -10 0
-80 -36 -119 -61 -16 -10 -37 -22 -45 -26 -8 -4 -53 -29 -100 -57 -254 -148
-528 -406 -698 -656 -75 -109 -198 -359 -212 -430 -6 -30 -16 -66 -22 -80 -40
-91 -55 -377 -38 -722 24 -468 26 -499 53 -598 68 -253 87 -293 254 -541 58
-87 311 -314 403 -361 14 -7 57 -31 95 -54 86 -50 206 -107 260 -124 22 -7 56
-18 75 -25 19 -7 62 -21 95 -30 33 -10 71 -21 85 -26 26 -8 106 -21 225 -38
39 -5 104 -15 145 -20 110 -16 527 2 645 28 293 63 339 75 470 126 33 13 92
35 130 50 102 39 176 76 300 151 61 36 117 69 125 72 20 7 281 216 347 278
101 95 251 284 328 414 82 139 118 219 160 350 52 161 55 174 55 219 0 25 7
77 15 116 21 98 21 531 0 630 -8 38 -15 104 -15 145 0 41 -7 102 -15 135 -8
33 -14 76 -15 95 0 36 -48 197 -75 257 -8 17 -15 36 -15 42 0 23 -64 138 -131
236 -44 66 -107 138 -181 210 -105 103 -188 175 -201 175 -4 0 -34 20 -69 44
-175 121 -385 204 -708 280 -143 34 -535 46 -790 24z m520 -353 c91 -8 174
-16 185 -19 11 -3 75 -19 142 -35 280 -69 510 -195 702 -384 180 -178 270
-358 306 -614 18 -125 18 -136 2 -225 -9 -52 -17 -105 -17 -118 0 -30 -75
-240 -100 -280 -6 -8 -19 -32 -30 -53 -49 -89 -147 -219 -233 -307 -88 -91
-295 -262 -333 -277 -11 -4 -43 -22 -72 -40 -28 -19 -60 -36 -70 -40 -9 -3
-51 -26 -93 -50 -42 -23 -83 -43 -92 -43 -17 0 -120 -37 -187 -67 -19 -9 -87
-27 -150 -40 -63 -13 -158 -33 -210 -45 -79 -17 -134 -20 -325 -21 -146 -1
-257 4 -305 12 -41 7 -102 16 -135 21 -69 9 -141 26 -170 39 -11 5 -63 24
-115 41 -52 18 -119 45 -147 61 -29 16 -79 43 -110 60 -151 83 -306 223 -402
364 -38 55 -75 114 -84 130 -34 68 -89 253 -92 315 -2 36 -7 103 -10 150 -4
64 -2 99 11 140 9 30 24 91 34 135 9 44 26 98 37 120 11 22 34 67 50 100 42
83 65 124 85 149 10 11 52 64 93 116 186 232 482 435 825 566 36 14 74 30 85
36 11 7 40 15 65 19 48 7 115 23 193 45 26 8 93 19 150 25 56 6 129 14 162 19
93 12 176 11 355 -5z m1290 -2219 c0 -9 -37 -84 -65 -131 -69 -118 -151 -226
-238 -315 -88 -91 -295 -262 -333 -277 -11 -4 -43 -22 -72 -40 -28 -19 -60
-36 -70 -40 -9 -3 -51 -26 -93 -50 -42 -23 -83 -43 -92 -43 -17 0 -120 -37
-187 -67 -19 -9 -87 -27 -150 -40 -63 -13 -158 -33 -210 -44 -109 -24 -495
-37 -565 -20 -22 5 -80 15 -130 21 -97 13 -208 36 -240 50 -11 4 -63 23 -115
41 -52 17 -119 45 -147 60 -146 79 -172 95 -224 131 -58 40 -126 114 -115 125
3 4 6 2 6 -4 0 -6 12 -14 27 -18 15 -3 54 -19 87 -34 34 -16 79 -34 101 -41
22 -7 56 -18 75 -25 19 -7 62 -21 95 -30 33 -10 71 -21 85 -26 26 -8 106 -21
225 -38 39 -5 104 -15 145 -20 99 -14 516 2 626 24 244 49 362 81 489 130 33
13 92 35 130 50 102 39 176 76 300 151 61 36 117 69 125 72 21 7 283 219 346
278 28 27 75 77 104 112 29 34 59 62 66 62 8 0 14 -2 14 -4z"/>
<path d="M5355 6719 c-88 -11 -203 -37 -275 -60 -87 -29 -139 -48 -158 -58 -9
-5 -37 -19 -62 -31 -25 -12 -58 -30 -75 -41 -16 -10 -37 -22 -45 -26 -50 -26
-173 -116 -248 -182 -236 -208 -345 -446 -313 -679 24 -171 95 -299 255 -458
81 -81 226 -199 266 -217 8 -4 29 -16 45 -27 29 -18 149 -78 210 -104 58 -25
101 -38 153 -48 l52 -10 77 52 c42 28 94 65 117 81 23 16 88 63 146 104 169
119 275 195 378 270 53 39 114 81 135 94 20 12 37 26 37 31 0 7 -34 40 -185
175 -325 291 -409 365 -416 365 -19 0 -309 -208 -309 -222 0 -11 36 -47 145
-143 55 -48 104 -95 109 -103 10 -17 4 -22 -119 -107 -44 -31 -109 -76 -144
-101 -53 -37 -69 -44 -93 -38 -88 19 -271 173 -314 264 -42 87 -53 144 -44
207 13 83 27 125 55 167 14 20 25 39 25 42 0 17 126 145 190 193 116 88 284
181 326 181 8 0 27 6 42 14 15 7 77 19 139 26 174 20 328 -5 457 -74 111 -59
276 -222 337 -334 53 -95 59 -108 65 -145 12 -67 23 -64 175 47 53 39 125 91
158 114 34 24 61 48 61 53 0 16 -93 165 -135 215 -75 90 -138 154 -209 212
-39 31 -73 59 -76 62 -5 6 -103 69 -135 87 -23 14 -97 49 -140 68 -182 77
-443 111 -660 84z m295 -139 c154 -23 182 -30 268 -66 18 -8 39 -14 46 -14 8
0 19 -7 26 -15 7 -8 20 -15 30 -15 10 0 23 -7 30 -15 7 -8 21 -15 31 -15 10 0
22 -6 26 -12 9 -14 36 -33 68 -47 11 -5 29 -19 40 -31 11 -12 33 -29 50 -38
36 -18 175 -151 175 -166 0 -6 20 -34 45 -63 l45 -51 -28 -18 c-32 -22 -62
-41 -79 -50 -19 -9 -43 3 -43 22 0 9 -13 33 -30 54 -16 21 -30 42 -30 46 0 17
-255 264 -272 264 -9 0 -19 4 -22 9 -7 11 -88 51 -103 51 -6 0 -16 7 -23 15
-7 8 -29 15 -49 15 -20 0 -45 6 -56 13 -26 17 -303 22 -400 7 -38 -6 -94 -14
-123 -18 -29 -5 -58 -14 -64 -20 -7 -7 -24 -12 -39 -12 -15 0 -32 -7 -39 -15
-7 -8 -21 -15 -32 -15 -11 0 -37 -13 -58 -30 -21 -16 -43 -30 -49 -30 -7 0
-14 -6 -17 -14 -3 -8 -17 -17 -32 -21 -32 -8 -332 -302 -332 -326 0 -9 -6 -22
-13 -28 -41 -33 -59 -366 -26 -456 31 -83 151 -231 217 -268 11 -7 45 -28 74
-48 105 -72 219 -89 293 -44 22 14 49 29 60 34 11 5 31 21 44 35 14 14 31 26
39 26 7 0 37 20 65 45 29 25 56 45 62 45 12 0 73 62 99 100 24 36 21 124 -5
166 -20 32 -88 94 -105 94 -11 1 -54 36 -54 44 0 3 17 21 37 40 l38 34 87 -84
c49 -47 97 -88 107 -92 21 -7 181 -159 181 -171 0 -12 -108 -101 -122 -101 -8
0 -27 -13 -43 -30 -16 -16 -33 -30 -38 -30 -5 0 -35 -20 -67 -45 -32 -25 -62
-45 -67 -45 -5 0 -22 -13 -38 -30 -16 -16 -35 -30 -43 -30 -7 0 -37 -20 -65
-45 -29 -25 -57 -45 -62 -45 -6 0 -24 -13 -40 -30 -16 -16 -36 -30 -46 -30 -9
0 -22 -7 -29 -15 -7 -8 -27 -15 -45 -15 -18 0 -38 7 -45 15 -7 8 -24 15 -39
15 -14 0 -35 7 -45 15 -11 8 -27 15 -37 15 -9 0 -22 7 -29 15 -7 8 -21 15 -31
15 -10 0 -22 6 -26 13 -9 14 -37 32 -70 47 -13 5 -23 14 -23 19 0 5 -11 12
-25 15 -13 3 -51 31 -83 61 -33 30 -63 55 -67 55 -14 0 -95 71 -95 83 0 7 -20
35 -45 64 -25 28 -45 58 -45 66 0 8 -7 20 -15 27 -8 7 -15 20 -15 30 0 10 -7
23 -15 30 -8 7 -15 25 -15 40 0 15 -7 41 -15 56 -19 37 -19 131 0 168 8 15 15
41 15 56 0 15 7 33 15 40 8 7 15 20 15 30 0 10 7 23 15 30 8 7 15 20 15 29 0
10 14 30 30 46 17 16 30 34 30 41 0 16 129 154 144 154 6 0 34 20 63 45 28 25
58 45 65 45 8 0 27 14 43 30 16 17 36 30 46 30 9 0 22 7 29 15 7 8 20 15 30
15 10 0 23 7 30 15 7 8 20 15 30 15 10 0 23 7 30 15 7 8 20 15 30 15 10 0 23
7 30 15 7 8 27 15 45 15 18 0 38 7 45 15 7 8 27 15 44 15 17 0 40 7 50 15 11
8 41 15 66 15 25 0 50 4 56 9 20 20 211 26 314 11z"/>
<path d="M2290 6459 c-58 -5 -161 -22 -230 -38 -69 -16 -141 -33 -160 -36 -66
-13 -234 -74 -387 -141 -17 -8 -35 -14 -39 -14 -10 0 -80 -36 -119 -61 -16
-10 -37 -22 -45 -26 -36 -17 -190 -111 -240 -147 -88 -64 -271 -219 -320 -272
-81 -87 -186 -217 -242 -299 -71 -104 -194 -356 -208 -425 -6 -30 -16 -66 -22
-80 -40 -91 -55 -377 -38 -722 24 -468 26 -499 53 -598 68 -253 87 -293 254
-541 58 -87 311 -314 403 -361 14 -7 57 -31 95 -54 86 -50 206 -107 260 -124
22 -7 56 -18 75 -25 19 -7 62 -21 95 -30 33 -10 71 -21 85 -26 26 -8 106 -21
225 -38 39 -5 104 -15 145 -20 110 -16 527 2 645 28 293 63 339 75 470 126 33
13 92 35 130 50 102 39 176 76 300 151 61 36 117 69 125 72 8 3 80 57 160 121
144 115 324 288 350 336 12 23 11 28 -13 53 -25 26 -41 35 -139 81 -26 12 -50
26 -53 32 -4 5 -28 9 -55 9 -45 0 -53 -4 -97 -47 -57 -57 -263 -220 -289 -230
-11 -4 -43 -22 -72 -40 -28 -19 -60 -36 -70 -40 -9 -3 -51 -26 -93 -50 -42
-23 -83 -43 -92 -43 -17 0 -120 -37 -187 -67 -19 -9 -87 -27 -150 -40 -63 -13
-158 -33 -210 -44 -109 -24 -495 -37 -565 -20 -22 5 -80 15 -130 21 -98 13
-208 36 -240 50 -11 5 -49 18 -85 30 -122 39 -287 122 -401 202 -58 40 -126
114 -115 125 3 4 6 2 6 -4 0 -6 12 -14 27 -18 15 -3 54 -19 87 -34 34 -16 79
-34 101 -41 22 -7 56 -18 75 -25 19 -7 62 -21 95 -30 33 -10 71 -21 85 -26 26
-8 106 -21 225 -38 39 -5 104 -15 145 -20 98 -14 516 2 626 24 73 15 282 63
364 84 19 5 60 19 90 31 125 51 148 60 215 86 39 15 97 42 130 61 70 39 67 38
166 97 42 25 79 46 82 46 12 0 147 102 147 111 0 11 -133 138 -168 160 -15 9
-43 33 -61 53 -40 41 -47 41 -128 -11 -29 -18 -61 -36 -71 -40 -9 -3 -51 -26
-93 -50 -42 -23 -83 -43 -92 -43 -17 0 -120 -37 -187 -67 -33 -15 -108 -32
-355 -84 -115 -23 -499 -37 -570 -20 -22 5 -80 15 -130 21 -97 13 -208 36
-240 50 -11 5 -63 23 -115 40 -52 18 -120 46 -150 63 -30 16 -80 43 -110 60
-148 80 -303 222 -399 362 -86 126 -93 141 -137 272 -31 93 -37 129 -45 256
-8 126 -7 155 7 205 9 31 24 93 34 137 9 44 26 98 37 120 11 22 34 67 50 100
42 83 65 124 85 149 10 11 52 64 93 116 185 231 483 435 825 566 36 14 74 30
85 36 11 7 40 15 65 19 48 7 115 23 193 46 26 7 87 18 135 23 327 34 319 33
517 15 105 -9 211 -18 237 -19 29 -2 55 -10 67 -20 26 -23 41 -13 41 28 0 19
7 39 15 46 8 7 15 19 15 27 0 8 6 27 14 41 21 41 42 93 56 136 12 38 12 41
-17 66 -28 25 -38 27 -244 43 -224 18 -511 20 -689 6z"/>
<path d="M2415 5789 c-88 -11 -203 -37 -275 -60 -87 -29 -139 -48 -158 -58 -9
-5 -37 -19 -62 -31 -25 -12 -58 -30 -75 -41 -16 -10 -37 -22 -45 -26 -50 -26
-173 -116 -248 -182 -236 -208 -345 -446 -313 -679 24 -171 95 -299 255 -458
81 -81 226 -199 266 -217 8 -4 29 -16 45 -27 29 -18 149 -78 210 -104 58 -25
101 -38 153 -48 l52 -10 77 52 c42 28 94 65 117 81 23 16 88 63 146 104 169
119 275 195 378 270 53 39 114 81 135 94 20 12 37 26 37 31 0 7 -34 40 -185
175 -325 291 -409 365 -416 365 -19 0 -309 -208 -309 -222 0 -11 36 -47 145
-143 55 -48 104 -95 109 -103 10 -17 4 -22 -119 -107 -44 -31 -109 -76 -144
-101 -53 -37 -69 -44 -93 -38 -88 19 -271 173 -314 264 -41 85 -53 143 -44
201 16 99 24 123 75 209 46 78 195 211 320 286 66 40 181 94 201 94 8 0 27 6
42 14 15 7 77 19 139 26 169 19 316 -3 448 -69 22 -10 43 -17 47 -14 12 7 10
121 -2 144 -6 10 -17 19 -24 19 -8 0 -19 7 -26 15 -7 8 -29 15 -49 15 -20 0
-45 6 -56 13 -26 17 -303 22 -400 7 -38 -6 -94 -14 -123 -18 -29 -5 -58 -14
-64 -20 -7 -7 -24 -12 -39 -12 -15 0 -32 -7 -39 -15 -7 -8 -21 -15 -32 -15
-11 0 -37 -13 -57 -28 -20 -16 -44 -32 -53 -35 -10 -4 -18 -11 -18 -16 0 -5
-12 -12 -27 -16 -33 -8 -333 -302 -333 -326 0 -9 -6 -22 -13 -28 -41 -33 -59
-366 -26 -456 31 -83 151 -231 217 -268 11 -7 45 -28 74 -48 105 -72 219 -89
293 -44 22 14 49 29 60 34 11 5 31 21 44 35 14 14 31 26 39 26 7 0 37 20 65
45 29 25 56 45 62 45 12 0 73 62 99 100 24 36 21 124 -5 166 -20 32 -88 94
-105 94 -11 1 -54 36 -54 44 0 3 17 21 37 40 l38 34 87 -84 c49 -47 97 -88
107 -92 21 -7 181 -159 181 -171 0 -12 -108 -101 -122 -101 -8 0 -27 -13 -43
-30 -16 -16 -33 -30 -38 -30 -5 0 -35 -20 -67 -45 -32 -25 -62 -45 -67 -45 -5
0 -22 -13 -38 -30 -16 -16 -35 -30 -43 -30 -7 0 -37 -20 -65 -45 -29 -25 -57
-45 -62 -45 -6 0 -24 -13 -40 -30 -16 -16 -36 -30 -46 -30 -9 0 -22 -7 -29
-15 -7 -8 -27 -15 -45 -15 -18 0 -38 7 -45 15 -7 8 -24 15 -39 15 -14 0 -35 7
-45 15 -11 8 -27 15 -37 15 -9 0 -22 7 -29 15 -7 8 -21 15 -31 15 -10 0 -22 6
-26 13 -9 14 -37 32 -70 47 -13 5 -23 14 -23 19 0 5 -11 12 -25 15 -13 3 -51
31 -83 61 -33 30 -63 55 -67 55 -14 0 -95 71 -95 83 0 7 -20 35 -45 64 -25 28
-45 58 -45 66 0 8 -7 20 -15 27 -8 7 -15 20 -15 30 0 10 -7 23 -15 30 -8 7
-15 25 -15 40 0 15 -7 41 -15 56 -8 16 -15 54 -15 84 0 30 7 68 15 84 8 15 15
41 15 56 0 15 7 33 15 40 8 7 15 20 15 30 0 10 7 23 15 30 8 7 15 20 15 29 0
10 14 30 30 46 17 16 30 34 30 41 0 16 129 154 144 154 6 0 34 20 63 45 28 25
58 45 65 45 8 0 27 14 43 30 16 17 36 30 46 30 9 0 22 7 29 15 7 8 20 15 30
15 10 0 23 7 30 15 7 8 20 15 30 15 10 0 23 7 30 15 7 8 20 15 30 15 10 0 23
7 30 15 7 8 27 15 45 15 18 0 38 7 45 15 7 8 27 15 44 15 17 0 40 7 50 15 11
8 41 15 66 15 25 0 51 5 57 11 16 16 218 22 303 10 157 -23 172 -27 267 -62
11 -4 24 -5 27 -2 9 9 7 126 -2 141 -12 18 -102 41 -232 57 -126 16 -237 17
-345 4z"/>
<path d="M6545 3486 c-25 -16 -123 -71 -186 -102 -65 -33 -72 -44 -55 -85 7
-19 21 -93 31 -166 18 -124 18 -136 2 -225 -9 -52 -17 -105 -17 -118 0 -30
-75 -240 -100 -280 -6 -8 -19 -32 -30 -53 -49 -89 -147 -219 -233 -307 -88
-91 -295 -262 -333 -277 -11 -4 -43 -22 -72 -40 -28 -19 -60 -36 -70 -40 -9
-3 -52 -26 -94 -50 -43 -23 -84 -43 -93 -43 -15 0 -120 -38 -185 -67 -19 -9
-87 -27 -150 -40 -63 -13 -158 -33 -210 -45 -79 -17 -134 -20 -325 -21 -143
-1 -256 4 -300 11 -38 7 -99 17 -135 22 -76 11 -147 27 -175 39 -11 5 -63 24
-115 41 -52 18 -119 45 -147 61 -29 16 -79 43 -110 60 -165 90 -307 222 -420
392 -47 70 -92 127 -100 127 -8 0 -35 -8 -61 -19 -62 -24 -134 -42 -207 -51
-33 -5 -73 -13 -90 -18 -16 -6 -46 -13 -65 -17 -66 -11 -71 -21 -60 -116 5
-46 10 -121 10 -165 0 -81 26 -203 81 -379 31 -102 74 -179 206 -376 58 -87
311 -314 403 -361 14 -7 57 -31 95 -54 86 -50 206 -107 260 -124 22 -7 56 -18
75 -25 19 -7 62 -21 95 -30 33 -10 71 -21 85 -26 14 -4 57 -13 95 -19 39 -6
95 -15 126 -20 30 -6 71 -10 90 -10 19 0 50 -5 70 -10 59 -16 523 5 634 29
293 63 339 75 470 126 33 13 92 35 130 50 102 39 176 76 300 151 61 36 117 69
125 72 20 7 281 216 347 278 101 95 251 284 328 414 82 139 118 219 160 350
52 161 55 174 55 219 0 25 7 77 15 116 21 98 21 531 0 630 -8 38 -15 104 -15
145 0 41 -7 102 -15 135 -8 33 -14 76 -15 95 0 46 -59 230 -74 230 -6 0 -20
-6 -31 -14z m-255 -1520 c0 -9 -37 -84 -65 -131 -69 -118 -151 -226 -238 -315
-88 -91 -295 -262 -333 -277 -11 -4 -43 -22 -72 -40 -28 -19 -60 -36 -70 -40
-9 -3 -51 -26 -93 -50 -42 -23 -83 -43 -92 -43 -17 0 -120 -37 -187 -67 -19
-9 -87 -27 -150 -40 -63 -13 -158 -33 -210 -45 -79 -17 -134 -20 -325 -21
-146 -1 -257 4 -305 12 -41 7 -102 16 -135 21 -69 9 -141 26 -170 39 -11 5
-63 24 -115 41 -52 18 -119 45 -147 61 -29 16 -79 43 -110 60 -32 18 -83 49
-114 71 -58 40 -126 114 -115 125 3 4 6 2 6 -4 0 -6 12 -14 27 -18 15 -3 50
-17 78 -30 78 -36 126 -55 142 -55 8 0 29 -6 46 -14 18 -7 59 -21 92 -31 33
-10 71 -21 85 -26 26 -8 106 -21 225 -38 39 -5 104 -15 145 -20 41 -6 122 -9
180 -6 58 2 165 7 238 10 137 5 189 14 417 66 132 30 173 43 280 84 33 13 92
35 130 50 102 39 176 76 300 151 61 36 117 69 125 72 21 7 283 219 346 278 28
27 75 77 104 112 29 34 59 62 66 62 8 0 14 -2 14 -4z"/>
<path d="M5831 3211 c-25 -9 -56 -27 -70 -40 -14 -13 -35 -27 -46 -32 -11 -5
-27 -14 -36 -21 -22 -15 -49 -3 -49 22 0 29 -21 34 -95 20 -71 -13 -78 -23
-47 -68 49 -76 71 -123 79 -170 10 -60 30 -55 153 38 41 31 100 73 130 93 30
20 68 47 84 60 l29 24 -22 46 c-26 53 -36 55 -110 28z"/>
<path d="M4620 3053 c-122 -85 -230 -167 -230 -175 0 -11 36 -47 145 -143 55
-48 104 -95 109 -103 10 -17 4 -22 -119 -107 -44 -31 -109 -76 -144 -101 -53
-37 -69 -44 -93 -38 -54 11 -152 77 -223 149 -73 73 -101 120 -130 218 -9 31
-21 57 -25 57 -5 0 -29 -19 -54 -42 -39 -34 -46 -47 -46 -77 0 -48 18 -95 62
-161 37 -56 130 -153 166 -173 11 -7 45 -28 74 -48 105 -72 219 -89 293 -44
22 14 49 29 60 34 11 5 31 21 44 35 14 14 31 26 39 26 7 0 37 20 65 45 29 25
56 45 62 45 12 0 73 62 99 100 24 36 21 124 -5 166 -20 32 -88 94 -105 94 -11
1 -54 36 -54 44 0 3 17 21 37 40 l38 34 87 -84 c49 -47 97 -88 107 -92 21 -7
181 -159 181 -171 0 -12 -108 -101 -122 -101 -8 0 -27 -13 -43 -30 -16 -16
-33 -30 -38 -30 -5 0 -35 -20 -67 -45 -32 -25 -62 -45 -67 -45 -5 0 -22 -13
-38 -30 -16 -16 -35 -30 -43 -30 -7 0 -37 -20 -65 -45 -29 -25 -57 -45 -62
-45 -6 0 -24 -13 -40 -30 -16 -16 -36 -30 -46 -30 -9 0 -22 -7 -29 -15 -7 -8
-27 -15 -45 -15 -18 0 -38 7 -45 15 -7 8 -24 15 -39 15 -14 0 -35 7 -45 15
-11 8 -27 15 -37 15 -9 0 -22 7 -29 15 -7 8 -21 15 -31 15 -10 0 -22 6 -26 13
-9 14 -37 32 -70 47 -13 5 -23 14 -23 19 0 5 -11 12 -25 15 -13 3 -51 31 -83
61 -33 30 -63 55 -67 55 -14 0 -95 71 -95 83 0 7 -20 35 -45 64 -25 28 -45 56
-45 62 0 22 -21 20 -72 -8 -64 -36 -67 -59 -17 -124 77 -100 319 -318 389
-350 8 -4 29 -16 45 -27 29 -18 149 -78 210 -104 58 -25 101 -38 153 -48 l52
-10 77 52 c42 28 94 65 117 81 23 16 88 63 146 104 169 119 275 195 378 270
53 39 114 81 135 94 20 12 37 26 37 31 0 7 -34 40 -185 175 -334 299 -410 365
-419 364 -6 0 -40 -21 -76 -46z"/>
</g>
</svg>
