<?xml version="1.0" standalone="no"?>
<!DOCTYPE svg PUBLIC "-//W3C//DTD SVG 20010904//EN"
 "http://www.w3.org/TR/2001/REC-SVG-20010904/DTD/svg10.dtd">
<svg version="1.0" xmlns="http://www.w3.org/2000/svg"
 width="256.000000pt" height="256.000000pt" viewBox="0 0 256.000000 256.000000"
 preserveAspectRatio="xMidYMid meet">
<metadata>
Created by potrace 1.10, written by Peter Selinger 2001-2011
</metadata>
<g transform="translate(0.000000,256.000000) scale(0.100000,-0.100000)"
fill="#000000" stroke="none">
<path d="M696 2205 c-11 -8 -27 -15 -37 -15 -9 0 -35 -18 -57 -40 -22 -22 -48
-40 -59 -40 -10 0 -33 -13 -51 -30 -18 -16 -49 -32 -70 -35 -66 -11 -123 -36
-157 -70 -18 -19 -51 -39 -74 -45 -22 -6 -43 -15 -47 -21 -3 -6 -17 -14 -30
-19 -28 -11 -30 -27 -8 -78 8 -20 16 -50 16 -67 1 -39 17 -56 78 -85 47 -22
52 -23 83 -8 22 10 49 14 84 11 45 -5 53 -9 64 -34 6 -16 18 -33 25 -37 7 -4
19 -25 26 -46 19 -57 38 -65 92 -39 27 13 48 18 51 13 16 -26 43 -29 68 -10
32 26 49 25 75 -3 20 -21 20 -26 10 -95 l-12 -72 31 -33 c17 -17 28 -38 26
-44 -3 -9 9 -13 41 -13 37 0 56 -7 96 -36 50 -36 63 -51 35 -40 -9 3 -30 -8
-50 -25 -34 -30 -45 -62 -26 -74 6 -3 23 -25 39 -49 22 -32 27 -47 20 -60 -5
-10 -7 -24 -4 -31 3 -8 -3 -19 -14 -25 -24 -13 -50 -60 -50 -92 0 -13 -7 -32
-15 -42 -22 -29 -19 -39 24 -86 26 -28 44 -41 55 -37 8 3 34 35 58 70 38 58
111 118 125 104 4 -5 -45 -63 -133 -160 -37 -40 -46 -90 -19 -101 17 -6 20
-37 4 -53 -7 -7 -2 -17 20 -32 20 -14 31 -31 31 -46 0 -14 13 -39 28 -57 16
-18 32 -45 35 -59 8 -31 80 -124 104 -133 19 -8 50 26 55 59 4 25 40 31 62 10
14 -15 18 -14 40 7 14 13 47 52 75 87 55 69 65 111 36 161 -24 42 -18 84 20
140 19 29 35 56 35 61 0 20 41 -14 67 -54 14 -23 34 -48 44 -55 10 -7 19 -21
21 -32 2 -12 8 -21 13 -21 6 0 16 -5 23 -11 15 -13 30 4 62 68 28 56 48 72
100 80 60 9 69 18 63 62 -6 42 25 92 57 92 9 0 23 7 30 15 26 32 -11 88 -85
129 -40 21 -40 22 -45 91 -4 41 -2 78 5 88 14 25 -18 48 -62 45 -18 -1 -38 3
-45 10 -15 15 -60 16 -76 0 -9 -9 -17 -8 -37 2 -32 17 -34 42 -2 35 12 -3 29
-1 37 4 13 9 11 13 -8 31 -12 11 -22 30 -22 40 0 19 2 19 64 -4 35 -13 76 -31
92 -39 26 -13 133 -47 148 -47 3 0 6 14 6 30 0 32 -2 34 -93 104 -53 41 -56
46 -38 55 11 6 36 11 56 11 28 0 44 -8 73 -38 93 -94 155 -121 231 -99 24 6
53 23 65 37 30 36 89 70 119 70 32 0 46 24 40 66 -5 30 6 46 62 90 14 10 16
17 8 20 -8 4 -10 16 -6 35 3 19 0 38 -11 54 -14 22 -15 32 -6 60 13 40 6 58
-19 50 -24 -7 -89 21 -130 57 -43 38 -81 54 -149 63 -52 7 -125 36 -137 55 -3
5 -38 10 -77 10 -61 0 -71 3 -75 19 -7 29 -78 39 -103 16 -11 -10 -26 -15 -36
-11 -15 6 -15 8 1 26 10 11 15 23 11 27 -4 4 -48 8 -99 8 -86 1 -95 3 -135 32
-89 65 -186 77 -270 33 -71 -37 -100 -36 -173 4 -48 26 -86 39 -140 46 -41 5
-108 19 -149 30 -89 23 -99 24 -124 5z m438 -1066 c-3 -5 -17 -6 -32 -3 -38 9
-46 15 -32 24 16 10 72 -9 64 -21z m315 -650 c-12 -21 -14 -22 -17 -6 -6 28 6
53 19 40 8 -8 7 -18 -2 -34z"/>
<path d="M170 1463 c0 -14 93 -53 140 -60 25 -3 50 -13 56 -21 11 -15 25 -14
69 4 18 7 19 6 6 -9 -12 -15 -11 -20 4 -37 10 -11 16 -21 14 -23 -2 -1 -33
-17 -69 -36 -130 -68 -146 -101 -100 -215 16 -42 30 -87 30 -100 0 -38 35 -73
80 -81 26 -4 51 -18 73 -40 61 -61 116 -59 167 5 29 37 31 43 17 58 -20 23
-10 44 41 87 44 38 53 62 27 71 -18 7 -19 27 -2 55 10 18 8 24 -18 48 -19 17
-39 53 -54 96 -31 92 -38 100 -67 81 -21 -15 -24 -13 -54 20 -19 22 -54 45
-92 60 -33 13 -66 28 -73 34 -9 8 -23 6 -49 -7 -34 -16 -38 -16 -71 0 -37 18
-75 22 -75 10z"/>
<path d="M2068 1165 c17 -21 19 -32 11 -57 -11 -39 -5 -46 19 -25 10 10 33 17
50 17 24 0 32 5 32 18 0 20 -78 72 -109 72 l-22 0 19 -25z"/>
<path d="M2225 1150 c-16 -17 -16 -20 -2 -20 26 0 47 11 47 26 0 20 -24 17
-45 -6z"/>
<path d="M1948 1120 c-5 -57 3 -66 41 -44 41 24 47 45 21 66 -38 31 -57 23
-62 -22z"/>
<path d="M2280 986 c0 -10 9 -16 21 -16 24 0 21 23 -4 28 -10 2 -17 -3 -17
-12z"/>
<path d="M2097 953 c-4 -3 3 -17 15 -30 17 -18 19 -26 10 -35 -18 -18 -14 -33
13 -48 23 -12 31 -11 75 11 27 13 49 26 49 29 0 3 -21 22 -45 43 -43 35 -98
50 -117 30z"/>
</g>
</svg>
